<svg width="112" height="31" viewBox="0 0 112 31" fill="none" xmlns="http://www.w3.org/2000/svg">
<rect width="109" height="31" rx="15.5" fill="white"/>
<g filter="url(#filter0_d_359_162)">
<path d="M21.0684 14.7498L19.4704 14.7366C19.4501 14.5724 19.4073 14.424 19.342 14.2913C19.2768 14.1587 19.1901 14.045 19.082 13.9504C18.9739 13.8558 18.8454 13.7833 18.6966 13.7331C18.5498 13.6808 18.387 13.6538 18.208 13.6524C17.8906 13.6498 17.6163 13.7253 17.3853 13.8789C17.1564 14.0326 16.9793 14.2559 16.854 14.5489C16.7308 14.842 16.6679 15.1973 16.6655 15.6149C16.6629 16.0496 16.7225 16.4144 16.8443 16.7094C16.9683 17.0024 17.1428 17.2243 17.3677 17.3753C17.5949 17.5242 17.8639 17.6 18.175 17.6025C18.3497 17.6039 18.5086 17.5829 18.6516 17.5393C18.7967 17.4958 18.9239 17.4318 19.0331 17.3475C19.1444 17.261 19.2356 17.1563 19.3066 17.0333C19.3798 16.9082 19.4307 16.7669 19.4593 16.6095L21.0572 16.6322C21.0278 16.9217 20.942 17.2066 20.7997 17.4866C20.6595 17.7668 20.4673 18.0219 20.223 18.2522C19.9788 18.4803 19.6815 18.6611 19.3313 18.7946C18.9832 18.9281 18.5844 18.993 18.1348 18.9893C17.5425 18.9844 17.0128 18.8501 16.5456 18.5863C16.0805 18.3204 15.7142 17.936 15.4466 17.4331C15.179 16.9301 15.0473 16.3197 15.0515 15.6016C15.0558 14.8815 15.1969 14.2722 15.4747 13.7737C15.7525 13.2753 16.1265 12.898 16.5968 12.6419C17.0671 12.3859 17.5931 12.2602 18.1747 12.265C18.571 12.2682 18.9371 12.3266 19.2731 12.4402C19.6091 12.5516 19.9043 12.7139 20.1587 12.9269C20.4132 13.1378 20.6194 13.3963 20.7774 13.7023C20.9354 14.0083 21.0324 14.3574 21.0684 14.7498ZM23.1977 18.9414L21.4975 18.9274L23.7447 12.4003L25.8508 12.4176L28.0203 18.981L26.3201 18.9671L24.8119 14.0582L24.7608 14.0578L23.1977 18.9414ZM22.9861 16.3636L26.5399 16.3928L26.5328 17.5945L22.9789 17.5653L22.9861 16.3636ZM28.725 18.9868L28.7638 12.4415L31.4676 12.4637C31.9576 12.4677 32.38 12.5596 32.7348 12.7394C33.0917 12.9171 33.3661 13.1708 33.5581 13.5005C33.75 13.828 33.8447 14.2156 33.842 14.663C33.8393 15.1168 33.738 15.5016 33.5379 15.8175C33.3379 16.1312 33.0552 16.3696 32.6899 16.5328C32.3246 16.6939 31.8927 16.7724 31.3941 16.7683L29.6843 16.7542L29.6917 15.5078L31.1075 15.5195C31.3461 15.5214 31.5455 15.4922 31.7057 15.4317C31.868 15.3691 31.9911 15.2742 32.0749 15.1471C32.1588 15.0178 32.2013 14.8519 32.2025 14.6495C32.2037 14.4471 32.1631 14.2795 32.0808 14.1467C31.9985 14.0118 31.8766 13.9107 31.7151 13.8433C31.5536 13.7738 31.3546 13.738 31.1181 13.7361L30.3383 13.7297L30.307 18.9998L28.725 18.9868ZM32.4276 16.0257L34.0398 19.0305L32.314 19.0163L30.7338 16.0118L32.4276 16.0257ZM34.6838 19.0358L34.7226 12.4905L39.2864 12.528L39.2788 13.8128L36.297 13.7883L36.289 15.1306L39.0375 15.1531L39.0299 16.4411L36.2814 16.4185L36.2734 17.764L39.2552 17.7885L39.2476 19.0733L34.6838 19.0358ZM40.2383 19.0815L40.2771 12.5361L44.8409 12.5736L44.8333 13.8584L41.8515 13.8339L41.8435 15.1762L44.592 15.1988L44.5844 16.4868L41.8359 16.4642L41.8279 17.8097L44.8097 17.8342L44.8021 19.119L40.2383 19.0815ZM45.7928 19.1271L45.8316 12.5818L48.5354 12.604C49.0254 12.608 49.4478 12.6999 49.8026 12.8797C50.1595 13.0573 50.4339 13.311 50.6258 13.6407C50.8178 13.9683 50.9124 14.3558 50.9098 14.8033C50.9071 15.2571 50.8057 15.6419 50.6057 15.9578C50.4057 16.2715 50.123 16.5099 49.7577 16.6731C49.3924 16.8342 48.9605 16.9127 48.4619 16.9086L46.7521 16.8945L46.7595 15.6481L48.1753 15.6597C48.4139 15.6617 48.6133 15.6324 48.7734 15.5719C48.9358 15.5094 49.0588 15.4145 49.1427 15.2873C49.2265 15.158 49.2691 14.9922 49.2703 14.7898C49.2715 14.5874 49.2309 14.4198 49.1486 14.287C49.0663 14.1521 48.9444 14.0509 48.7829 13.9836C48.6213 13.914 48.4223 13.8783 48.1858 13.8764L47.406 13.87L47.3748 19.1401L45.7928 19.1271ZM49.4954 16.166L51.1076 19.1708L49.3818 19.1566L47.8016 16.152L49.4954 16.166ZM53.6851 19.192L53.7239 12.6466L55.3059 12.6596L55.2903 15.2867L57.8694 15.3079L57.885 12.6808L59.4638 12.6938L59.425 19.2391L57.8462 19.2262L57.8618 16.5959L55.2827 16.5747L55.2671 19.205L53.6851 19.192ZM62.0381 12.715L61.9993 19.2603L60.4173 19.2473L60.4561 12.702L62.0381 12.715ZM66.5575 14.7145C66.5376 14.48 66.4438 14.297 66.2763 14.1657C66.1109 14.0322 65.8737 13.9642 65.5648 13.9617C65.3602 13.96 65.1896 13.9852 65.0529 14.0374C64.9163 14.0895 64.8136 14.1622 64.7448 14.2554C64.6761 14.3464 64.6403 14.4516 64.6375 14.5709C64.6326 14.6689 64.6513 14.7553 64.6935 14.8302C64.7378 14.9052 64.8013 14.9718 64.8841 15.03C64.969 15.0861 65.0709 15.1359 65.19 15.1795C65.3091 15.2231 65.4431 15.2615 65.592 15.2947L66.1537 15.4271C66.4772 15.5001 66.7621 15.5962 67.0086 15.7154C67.2572 15.8347 67.4651 15.9759 67.6325 16.1392C67.802 16.3026 67.9298 16.4901 68.0159 16.7017C68.102 16.9134 68.1453 17.1502 68.1459 17.4123C68.1413 17.8256 68.0348 18.1795 67.8264 18.474C67.6179 18.7685 67.3194 18.9929 66.9307 19.1474C66.5441 19.3019 66.0781 19.3769 65.5327 19.3724C64.9851 19.3679 64.5083 19.282 64.1023 19.1146C63.6964 18.9472 63.3815 18.6953 63.1576 18.3589C62.9337 18.0226 62.8201 17.5987 62.8168 17.0873L64.3316 17.0997C64.3432 17.3108 64.3986 17.487 64.4979 17.6284C64.5972 17.7699 64.734 17.8775 64.9083 17.9514C65.0847 18.0253 65.289 18.0632 65.5212 18.0651C65.7343 18.0669 65.9156 18.0396 66.0651 17.9833C66.2167 17.927 66.3333 17.8481 66.4148 17.7465C66.4964 17.6449 66.5386 17.528 66.5416 17.3959C66.5402 17.2723 66.5024 17.1666 66.4284 17.0786C66.3543 16.9885 66.2397 16.9108 66.0846 16.8456C65.9316 16.7783 65.7359 16.716 65.4976 16.6586L64.8146 16.4932C64.2487 16.3586 63.8036 16.1451 63.4793 15.8526C63.155 15.558 62.9955 15.1625 63.0005 14.6661C63.0008 14.2613 63.1116 13.9074 63.3328 13.6045C63.5541 13.3017 63.8591 13.0666 64.2479 12.8993C64.6367 12.7321 65.0793 12.6505 65.5757 12.6545C66.0828 12.6587 66.5223 12.7486 66.8941 12.9243C67.2681 13.0978 67.5575 13.3399 67.7623 13.6505C67.9671 13.9612 68.0705 14.32 68.0723 14.727L66.5575 14.7145ZM68.7507 14.055L68.7583 12.7702L74.2904 12.8157L74.2828 14.1004L72.2982 14.0841L72.2669 19.3447L70.7073 19.3319L70.7386 14.0713L68.7507 14.055ZM80.9225 16.143C80.9182 16.8631 80.7761 17.4724 80.4962 17.9709C80.2162 18.4693 79.839 18.8465 79.3645 19.1026C78.892 19.3586 78.3629 19.4843 77.777 19.4795C77.1889 19.4746 76.6602 19.3392 76.1909 19.0733C75.7216 18.8074 75.35 18.424 75.0759 17.9231C74.8041 17.4202 74.6702 16.8097 74.6745 16.0916C74.6788 15.3715 74.8198 14.7622 75.0976 14.2637C75.3776 13.7653 75.7538 13.3881 76.2262 13.132C76.6986 12.8759 77.2288 12.7503 77.8169 12.7551C78.4028 12.76 78.9304 12.8943 79.3997 13.1581C79.8712 13.4219 80.2439 13.8053 80.5179 14.3083C80.7919 14.8113 80.9268 15.4228 80.9225 16.143ZM79.3054 16.1297C79.3079 15.7036 79.2493 15.343 79.1296 15.048C79.0121 14.753 78.8408 14.5289 78.6159 14.3758C78.393 14.2226 78.124 14.1448 77.8086 14.1422C77.4954 14.1396 77.2255 14.213 76.9987 14.3625C76.772 14.5119 76.597 14.7331 76.4738 15.0261C76.3528 15.3192 76.291 15.6788 76.2884 16.1049C76.2859 16.531 76.3434 16.8916 76.461 17.1866C76.5807 17.4816 76.753 17.7057 76.978 17.8589C77.2029 18.012 77.472 18.0898 77.7852 18.0924C78.1005 18.095 78.3705 18.0216 78.5951 17.8721C78.8219 17.7227 78.9958 17.5015 79.1168 17.2084C79.24 16.9154 79.3029 16.5558 79.3054 16.1297ZM81.8267 19.4233L81.8656 12.8779L84.5693 12.9001C85.0593 12.9042 85.4817 12.9961 85.8365 13.1758C86.1934 13.3535 86.4678 13.6072 86.6598 13.9369C86.8517 14.2645 86.9464 14.652 86.9437 15.0994C86.941 15.5532 86.8397 15.9381 86.6396 16.2539C86.4396 16.5676 86.1569 16.8061 85.7916 16.9693C85.4263 17.1303 84.9944 17.2088 84.4958 17.2047L82.786 17.1907L82.7934 15.9442L84.2092 15.9559C84.4478 15.9578 84.6472 15.9286 84.8074 15.8681C84.9697 15.8055 85.0928 15.7106 85.1766 15.5835C85.2605 15.4542 85.303 15.2883 85.3042 15.0859C85.3054 14.8835 85.2649 14.7159 85.1826 14.5831C85.1003 14.4482 84.9783 14.3471 84.8168 14.2797C84.6553 14.2102 84.4563 14.1745 84.2198 14.1725L83.44 14.1661L83.4087 19.4363L81.8267 19.4233ZM85.5294 16.4621L87.1415 19.4669L85.4157 19.4527L83.8355 16.4482L85.5294 16.4621ZM87.2083 12.9218L88.9757 12.9363L90.3432 15.6867L90.4008 15.6871L91.8009 12.9596L93.5682 12.9741L91.1486 17.3137L91.1356 19.4998L89.5632 19.4868L89.5762 17.3008L87.2083 12.9218Z" fill="black"/>
</g>
<defs>
<filter id="filter0_d_359_162" x="11.0316" y="12.2395" width="86.5372" height="15.3694" filterUnits="userSpaceOnUse" color-interpolation-filters="sRGB">
<feFlood flood-opacity="0" result="BackgroundImageFix"/>
<feColorMatrix in="SourceAlpha" type="matrix" values="0 0 0 0 0 0 0 0 0 0 0 0 0 0 0 0 0 0 127 0" result="hardAlpha"/>
<feOffset dy="4"/>
<feGaussianBlur stdDeviation="2"/>
<feComposite in2="hardAlpha" operator="out"/>
<feColorMatrix type="matrix" values="0 0 0 0 0 0 0 0 0 0 0 0 0 0 0 0 0 0 0.25 0"/>
<feBlend mode="normal" in2="BackgroundImageFix" result="effect1_dropShadow_359_162"/>
<feBlend mode="normal" in="SourceGraphic" in2="effect1_dropShadow_359_162" result="shape"/>
</filter>
</defs>
</svg>
