<svg width="23" height="27" viewBox="0 0 23 27" fill="none" xmlns="http://www.w3.org/2000/svg">
<path d="M11.5 25.2575C17.299 25.2575 22 19.8417 22 13.1609C22 6.4802 17.299 1.06439 11.5 1.06439C5.70101 1.06439 1 6.4802 1 13.1609C1 19.8417 5.70101 25.2575 11.5 25.2575Z" fill="#FCFDFF" stroke="black" stroke-width="2"/>
<path d="M11.1223 12.0804L11.5 12.5158L11.8777 12.0804L14.316 9.27023C14.3896 9.19413 14.4707 9.16645 14.5396 9.1679C14.6103 9.16939 14.6944 9.20225 14.7684 9.2874C14.8441 9.37457 14.8969 9.50498 14.8994 9.65385C14.9018 9.79954 14.8554 9.93096 14.7839 10.0228L12.3446 12.833L12.0601 13.1609L12.3447 13.4886L14.7841 16.2977C14.8557 16.3895 14.9022 16.5209 14.8999 16.6667C14.8976 16.8155 14.8448 16.946 14.7691 17.0333C14.6952 17.1186 14.6111 17.1515 14.5403 17.1531C14.4715 17.1546 14.3904 17.127 14.3168 17.0511L11.8776 14.2411L11.5 13.8061L11.1224 14.2411L8.68147 17.0532C8.60697 17.1334 8.52388 17.1628 8.45377 17.1619C8.38248 17.161 8.29756 17.1282 8.22292 17.0422C8.14646 16.9542 8.09346 16.8221 8.09195 16.6717C8.09046 16.5233 8.13946 16.3906 8.21331 16.2996L10.6553 13.4887L10.9401 13.1609L10.6554 12.833L8.21352 10.0198C8.13974 9.92869 8.09086 9.79594 8.09246 9.6476C8.09408 9.49723 8.14718 9.36522 8.22367 9.27725C8.29834 9.19138 8.38324 9.15874 8.45453 9.15786C8.52466 9.15699 8.60779 9.18651 8.68229 9.26691L11.1223 12.0804Z" fill="#FCFDFF" stroke="black"/>
</svg>
