<svg width="24" height="24" viewBox="0 0 24 24" fill="none" xmlns="http://www.w3.org/2000/svg">
<path d="M9.003 5.43303C10.0094 5.04284 11.0982 4.9135 12.168 5.05703C13.2425 5.20333 14.2634 5.61583 15.138 6.25703C16.0297 6.91158 16.7513 7.77066 17.242 8.76203C17.74 9.76203 18 10.874 18 12.002C18 13.13 17.74 14.242 17.24 15.242C16.749 16.2327 16.0275 17.091 15.136 17.745C14.2607 18.3859 13.239 18.7977 12.164 18.943C11.0945 19.0864 10.0061 18.957 9 18.567C9 18.567 13 16.119 13 12.001C13 7.88303 9.003 5.43303 9.003 5.43303Z" stroke="white" stroke-width="2" stroke-linejoin="round"/>
</svg>
