<svg width="30" height="29" viewBox="0 0 30 29" fill="none" xmlns="http://www.w3.org/2000/svg">
<ellipse cx="15" cy="14.5" rx="15" ry="14.5" fill="white"/>
<path fill-rule="evenodd" clip-rule="evenodd" d="M8 11.734L12.857 14.538L8 17.342V11.734ZM15.048 13.494L7.5 9.13397C7.34791 9.04616 7.17538 8.99996 6.99976 9C6.82414 9.00004 6.65163 9.04633 6.49958 9.13422C6.34753 9.2221 6.22131 9.34848 6.13361 9.50063C6.04591 9.65279 5.99983 9.82536 6 10.001V19.073C6 19.2485 6.04621 19.4209 6.13398 19.573C6.22175 19.725 6.34799 19.8512 6.50001 19.939C6.65203 20.0267 6.82447 20.073 7.00001 20.073C7.17554 20.0729 7.34798 20.0267 7.5 19.939L15.048 15.582V19.073C15.048 19.2485 15.0942 19.4209 15.182 19.573C15.2698 19.725 15.396 19.8512 15.548 19.939C15.7 20.0267 15.8725 20.073 16.048 20.073C16.2235 20.0729 16.396 20.0267 16.548 19.939L24.405 15.403C24.557 15.3152 24.6832 15.189 24.771 15.037C24.8588 14.8849 24.905 14.7125 24.905 14.537C24.905 14.3614 24.8588 14.189 24.771 14.037C24.6832 13.885 24.557 13.7587 24.405 13.671L16.548 9.13397C16.3959 9.04616 16.2234 8.99996 16.0478 9C15.8721 9.00004 15.6996 9.04633 15.5476 9.13422C15.3955 9.2221 15.2693 9.34848 15.1816 9.50063C15.0939 9.65279 15.0478 9.82536 15.048 10.001V13.492V13.494ZM17.048 11.734L21.905 14.538L17.048 17.342V11.734Z" fill="black"/>
</svg>
