<svg width="393" height="852" viewBox="0 0 393 852" fill="none" xmlns="http://www.w3.org/2000/svg">
<rect width="397" height="852" fill="#634646"/>
<rect x="28.5" y="40.5" width="338" height="774" fill="#634646"/>
<rect x="28.5" y="40.5" width="338" height="774" stroke="black" stroke-width="3"/>
<rect x="28.5" y="40.5" width="338" height="774" stroke="black" stroke-opacity="0.2" stroke-width="3"/>
<rect x="59" y="76" width="121" height="203" fill="#634646"/>
<rect x="59" y="76" width="121" height="203" stroke="black" stroke-width="2"/>
<rect x="59" y="76" width="121" height="203" stroke="black" stroke-opacity="0.2" stroke-width="2"/>
<rect x="61" y="316" width="121" height="203" fill="#634646"/>
<rect x="61" y="316" width="121" height="203" stroke="black" stroke-width="2"/>
<rect x="61" y="316" width="121" height="203" stroke="black" stroke-opacity="0.2" stroke-width="2"/>
<rect x="215" y="314" width="121" height="203" fill="#634646"/>
<rect x="215" y="314" width="121" height="203" stroke="black" stroke-width="2"/>
<rect x="215" y="314" width="121" height="203" stroke="black" stroke-opacity="0.2" stroke-width="2"/>
<rect x="215" y="555" width="121" height="203" fill="#634646"/>
<rect x="215" y="555" width="121" height="203" stroke="black" stroke-width="2"/>
<rect x="215" y="555" width="121" height="203" stroke="black" stroke-opacity="0.2" stroke-width="2"/>
<rect x="61" y="557" width="121" height="203" fill="#634646"/>
<rect x="61" y="557" width="121" height="203" stroke="black" stroke-width="2"/>
<rect x="61" y="557" width="121" height="203" stroke="black" stroke-opacity="0.2" stroke-width="2"/>
<rect x="215" y="76" width="121" height="203" fill="#634646"/>
<rect x="215" y="76" width="121" height="203" stroke="black" stroke-width="2"/>
<rect x="215" y="76" width="121" height="203" stroke="black" stroke-opacity="0.2" stroke-width="2"/>
<path d="M2 4C7.6 6.4 21.6667 29.6667 28 41" stroke="black" stroke-width="2"/>
<path d="M392 3L367 41" stroke="black" stroke-width="2"/>
<path d="M2 850L27 815" stroke="black" stroke-width="2"/>
<path d="M367 816L392 850" stroke="black" stroke-width="2"/>
<path d="M190 154L156 189" stroke="black" stroke-width="3"/>
<ellipse cx="196" cy="150" rx="7" ry="8" fill="#D9D9D9"/>
<path d="M203 154L237 189" stroke="black" stroke-width="3"/>
<rect x="132.5" y="183.5" width="128" height="70" fill="#F4F4F4" stroke="black" stroke-width="3"/>
<path d="M140.979 212.223C141.779 212.223 142.398 212.356 142.834 212.623C143.439 213.007 143.924 213.727 144.289 214.781C145.604 218.616 146.438 220.995 146.789 221.92C147.154 222.883 147.6 223.417 148.127 223.521L148.566 223.6V224H144.543V223.59L145.295 223.424C145.601 223.346 145.757 223.176 145.764 222.916C145.764 222.76 145.718 222.548 145.627 222.281L144.904 220.113H140.949C140.396 221.865 140.113 222.796 140.1 222.906C140.1 223.193 140.327 223.388 140.783 223.492L141.359 223.6V224H137.678V223.59L138.225 223.492C138.706 223.401 139.126 222.838 139.484 221.803L141.594 215.68C141.978 214.553 142.18 213.876 142.199 213.648C142.225 213.421 142.15 213.307 141.975 213.307C141.766 213.307 141.568 213.342 141.379 213.414C141.197 213.486 141.079 213.521 141.027 213.521C140.715 213.521 140.503 213.378 140.393 213.092C140.36 212.994 140.344 212.893 140.344 212.789C140.389 212.431 140.601 212.242 140.979 212.223ZM142.951 214.098L141.154 219.508H144.719L142.951 214.098ZM149.582 212.906C148.931 212.906 148.602 212.678 148.596 212.223C148.596 211.878 148.765 211.64 149.104 211.51C149.221 211.471 149.335 211.448 149.445 211.441C149.79 211.441 150.064 211.565 150.266 211.812C150.474 212.06 150.617 212.216 150.695 212.281C150.78 212.346 150.904 212.379 151.066 212.379H154.514V212.809L153.85 212.955C153.615 213.007 153.475 213.082 153.43 213.18C153.391 213.271 153.371 213.508 153.371 213.893V222.506C153.371 222.923 153.4 223.17 153.459 223.248C153.518 223.32 153.648 223.378 153.85 223.424L154.514 223.57V224H150.725V223.59L151.291 223.473C151.643 223.401 151.857 223.258 151.936 223.043C152.014 222.828 152.053 222.464 152.053 221.949V214.156C152.04 213.473 151.874 213.079 151.555 212.975C151.457 212.942 151.33 212.926 151.174 212.926L149.582 212.906ZM157.551 212.789V212.379H161.682C163.96 212.379 165.617 212.88 166.652 213.883C167.688 214.879 168.205 216.324 168.205 218.219C168.205 220.706 167.137 222.402 165.002 223.307C163.915 223.762 162.629 223.993 161.145 224C158.371 224 156.623 223.268 155.9 221.803C155.66 221.314 155.539 220.751 155.539 220.113C155.539 218.701 156.187 217.659 157.482 216.988C157.899 216.773 158.365 216.611 158.879 216.5V214.43C158.879 213.837 158.83 213.453 158.732 213.277C158.635 213.095 158.433 212.971 158.127 212.906L157.551 212.789ZM163.303 217.252C163.303 217.701 163.065 217.929 162.59 217.936C162.342 217.936 162.098 217.809 161.857 217.555C161.617 217.301 161.424 217.132 161.281 217.047C161.092 216.93 160.721 216.897 160.168 216.949V223.375C160.292 223.388 160.435 223.395 160.598 223.395H161.252C162.684 223.395 163.879 223.066 164.836 222.408C166.112 221.523 166.753 220.139 166.76 218.258C166.76 215.738 165.839 214.117 163.996 213.395C163.319 213.134 162.548 213.004 161.682 213.004H160.168V216.334C160.259 216.327 160.376 216.324 160.52 216.324C161.75 216.324 162.544 216.422 162.902 216.617C163.163 216.76 163.296 216.972 163.303 217.252ZM158.879 217.203C157.271 217.711 156.464 218.697 156.457 220.162C156.457 221.419 157.115 222.337 158.43 222.916C158.762 223.059 159.123 223.173 159.514 223.258C159.312 223.147 159.1 222.965 158.879 222.711V217.203ZM170.051 212.906C169.4 212.906 169.071 212.678 169.064 212.223C169.064 211.878 169.234 211.64 169.572 211.51C169.689 211.471 169.803 211.448 169.914 211.441C170.259 211.441 170.533 211.565 170.734 211.812C170.943 212.06 171.086 212.216 171.164 212.281C171.249 212.346 171.372 212.379 171.535 212.379H174.982V212.809L174.318 212.955C174.084 213.007 173.944 213.082 173.898 213.18C173.859 213.271 173.84 213.508 173.84 213.893V222.506C173.84 222.923 173.869 223.17 173.928 223.248C173.986 223.32 174.117 223.378 174.318 223.424L174.982 223.57V224H171.193V223.59L171.76 223.473C172.111 223.401 172.326 223.258 172.404 223.043C172.482 222.828 172.521 222.464 172.521 221.949V214.156C172.508 213.473 172.342 213.079 172.023 212.975C171.926 212.942 171.799 212.926 171.643 212.926L170.051 212.906ZM177.316 221.969V214.439C177.316 213.847 177.264 213.463 177.16 213.287C177.056 213.111 176.851 212.991 176.545 212.926L175.979 212.809V212.379H179.777V212.818L179.113 212.965C178.879 213.017 178.742 213.092 178.703 213.189C178.658 213.287 178.635 213.528 178.635 213.912V223.395H182.248C182.723 223.395 183.039 223.03 183.195 222.301C183.241 222.086 183.264 221.894 183.264 221.725H183.771V224H176.027V223.609L176.594 223.492C176.939 223.434 177.147 223.303 177.219 223.102C177.284 222.9 177.316 222.522 177.316 221.969ZM186.428 210.963C186.988 211.165 187.456 211.477 187.834 211.9C188.212 212.324 188.4 212.835 188.4 213.434C188.394 213.993 188.27 214.417 188.029 214.703C187.788 214.983 187.492 215.123 187.141 215.123C186.848 215.123 186.617 215.042 186.447 214.879C186.285 214.716 186.203 214.514 186.203 214.273C186.21 213.844 186.49 213.6 187.043 213.541C187.219 213.528 187.355 213.482 187.453 213.404C187.551 213.32 187.6 213.163 187.6 212.936C187.6 212.656 187.508 212.402 187.326 212.174C187.144 211.939 186.747 211.663 186.135 211.344L186.428 210.963ZM195.09 215.26C194.992 213.73 194.263 212.962 192.902 212.955C192.102 212.955 191.551 213.196 191.252 213.678C191.115 213.899 191.047 214.179 191.047 214.518C191.047 214.895 191.249 215.266 191.652 215.631L191.975 215.914L194.152 217.76C195.448 218.886 196.099 220.123 196.105 221.471C196.105 222.337 195.731 223.03 194.982 223.551C194.234 224.065 193.381 224.322 192.424 224.322C191.812 224.322 191.33 224.238 190.979 224.068C190.627 223.899 190.399 223.788 190.295 223.736C190.197 223.684 190.012 223.561 189.738 223.365L189.328 223.072V221.324C189.328 220.751 189.53 220.318 189.934 220.025C190.337 219.726 190.803 219.576 191.33 219.576C191.857 219.576 192.297 219.661 192.648 219.83C192.993 220.006 193.169 220.234 193.176 220.514V220.533C193.176 220.807 193.039 220.986 192.766 221.07C192.701 221.09 192.632 221.1 192.561 221.1C192.326 221.1 192.17 221.005 192.092 220.816C192.02 220.628 191.981 220.527 191.975 220.514C191.844 220.331 191.587 220.24 191.203 220.24C190.65 220.24 190.311 220.504 190.188 221.031C190.161 221.135 190.148 221.233 190.148 221.324C190.148 222.307 190.51 222.984 191.232 223.355C191.577 223.531 191.981 223.619 192.443 223.619C193.505 223.619 194.227 223.261 194.611 222.545C194.768 222.252 194.846 221.946 194.846 221.627C194.846 221.08 194.592 220.452 194.084 219.742C193.83 219.384 193.566 219.094 193.293 218.873L191.506 217.428C190.699 216.764 190.201 216.233 190.012 215.836C189.829 215.432 189.738 215.061 189.738 214.723C189.738 213.941 190.057 213.339 190.695 212.916C191.333 212.486 192.085 212.271 192.951 212.271C193.947 212.271 194.882 212.542 195.754 213.082L195.744 215.26H195.09ZM200.998 213.082C200.998 212.62 201.327 212.385 201.984 212.379H208.518C209.117 212.379 209.699 212.519 210.266 212.799C211.288 213.313 211.802 214.15 211.809 215.309C211.809 216.194 211.418 216.946 210.637 217.564C210.292 217.831 209.914 218.043 209.504 218.199C210.057 218.531 210.546 219.059 210.969 219.781C211.776 221.181 212.378 222.158 212.775 222.711C213.179 223.264 213.579 223.6 213.977 223.717V224.234C212.922 224.332 212.102 224.13 211.516 223.629C210.936 223.128 210.35 222.288 209.758 221.109C209.165 219.924 208.788 219.199 208.625 218.932C208.462 218.665 208.306 218.531 208.156 218.531C208.013 218.525 207.893 218.639 207.795 218.873C207.704 219.107 207.629 219.254 207.57 219.312C207.473 219.404 207.316 219.452 207.102 219.459C206.893 219.459 206.727 219.365 206.604 219.176C206.486 218.987 206.428 218.808 206.428 218.639C206.428 218.085 206.9 217.809 207.844 217.809C208.039 217.809 208.202 217.815 208.332 217.828C209.165 217.789 209.745 217.379 210.07 216.598C210.214 216.24 210.285 215.852 210.285 215.436C210.285 214.433 209.921 213.727 209.191 213.316C208.801 213.102 208.348 212.994 207.834 212.994H206.125V222.525C206.125 222.949 206.161 223.202 206.232 223.287C206.304 223.365 206.444 223.424 206.652 223.463L207.316 223.6V224H203.518V223.619L204.084 223.502C204.429 223.43 204.634 223.297 204.699 223.102C204.771 222.906 204.807 222.532 204.807 221.979V214.244C204.676 213.391 204.331 212.952 203.771 212.926C203.576 212.926 203.319 213.053 203 213.307C202.564 213.658 202.186 213.837 201.867 213.844C201.548 213.844 201.324 213.759 201.193 213.59C201.063 213.414 200.998 213.245 200.998 213.082ZM215.236 218.473C215.236 216.754 215.712 215.305 216.662 214.127C217.619 212.942 218.879 212.35 220.441 212.35C222.115 212.35 223.449 212.903 224.445 214.01C225.448 215.11 225.952 216.536 225.959 218.287C225.959 219.843 225.497 221.23 224.572 222.447C223.654 223.665 222.323 224.273 220.578 224.273C218.983 224.273 217.694 223.727 216.711 222.633C215.728 221.533 215.236 220.146 215.236 218.473ZM216.701 218.092C216.701 219.96 217.089 221.337 217.863 222.223C218.638 223.102 219.582 223.544 220.695 223.551C222.01 223.551 222.971 223.062 223.576 222.086C224.182 221.103 224.484 219.895 224.484 218.463C224.484 216.62 224.087 215.257 223.293 214.371C222.499 213.486 221.512 213.04 220.334 213.033H220.324C219.23 213.033 218.352 213.502 217.688 214.439C217.03 215.377 216.701 216.594 216.701 218.092ZM227.111 218.473C227.111 216.754 227.587 215.305 228.537 214.127C229.494 212.942 230.754 212.35 232.316 212.35C233.99 212.35 235.324 212.903 236.32 214.01C237.323 215.11 237.827 216.536 237.834 218.287C237.834 219.843 237.372 221.23 236.447 222.447C235.529 223.665 234.198 224.273 232.453 224.273C230.858 224.273 229.569 223.727 228.586 222.633C227.603 221.533 227.111 220.146 227.111 218.473ZM228.576 218.092C228.576 219.96 228.964 221.337 229.738 222.223C230.513 223.102 231.457 223.544 232.57 223.551C233.885 223.551 234.846 223.062 235.451 222.086C236.057 221.103 236.359 219.895 236.359 218.463C236.359 216.62 235.962 215.257 235.168 214.371C234.374 213.486 233.387 213.04 232.209 213.033H232.199C231.105 213.033 230.227 213.502 229.562 214.439C228.905 215.377 228.576 216.594 228.576 218.092ZM238.908 213.062C238.908 212.607 239.237 212.379 239.895 212.379H242.775L242.766 212.398H243.029L243.693 213.014L246.662 221.793L250.539 212.379H253.352V212.828C252.863 212.926 252.551 213.062 252.414 213.238C252.277 213.414 252.209 213.635 252.209 213.902V222.506C252.209 222.936 252.245 223.193 252.316 223.277C252.395 223.355 252.535 223.414 252.736 223.453L253.4 223.59V224H249.602V223.6L250.168 223.492C250.513 223.427 250.718 223.294 250.783 223.092C250.855 222.89 250.891 222.516 250.891 221.969V213.688L246.594 224.283H246.242L242.629 213.98L241.311 221.617L241.125 222.711C241.092 223.16 241.255 223.421 241.613 223.492L242.834 223.6V224H239.064V223.6L239.426 223.502C239.712 223.43 239.904 223.32 240.002 223.17C240.1 223.014 240.178 222.796 240.236 222.516C240.646 220.478 240.998 218.613 241.291 216.92L241.77 214.098C241.815 213.733 241.835 213.521 241.828 213.463C241.789 213.222 241.662 213.102 241.447 213.102C241.239 213.095 241.008 213.199 240.754 213.414C240.422 213.688 240.093 213.824 239.768 213.824C239.442 213.824 239.217 213.74 239.094 213.57C238.97 213.395 238.908 213.225 238.908 213.062Z" fill="black"/>
<rect x="321" y="383" width="30" height="68" fill="#B08E8E"/>
<path d="M338.016 433.101C338.016 435.31 344 443.5 336.516 443C329 443 335.016 435.31 335.016 433.101C331 429.5 334.031 426.134 336.516 426.134C339.001 426.134 342 429 338.016 433.101Z" fill="black"/>
<circle cx="336.5" cy="408.5" r="10.5" fill="#322424"/>
</svg>
