<svg width="30" height="29" viewBox="0 0 30 29" fill="none" xmlns="http://www.w3.org/2000/svg">
<ellipse cx="15" cy="14.5" rx="15" ry="14.5" transform="matrix(-1 0 0 1 30 0)" fill="white"/>
<path fill-rule="evenodd" clip-rule="evenodd" d="M22 11.734L17.143 14.538L22 17.342V11.734ZM14.952 13.494L22.5 9.13397C22.6521 9.04616 22.8246 8.99996 23.0002 9C23.1759 9.00004 23.3484 9.04633 23.5004 9.13422C23.6525 9.2221 23.7787 9.34848 23.8664 9.50063C23.9541 9.65279 24.0002 9.82536 24 10.001V19.073C24 19.2485 23.9538 19.4209 23.866 19.573C23.7782 19.725 23.652 19.8512 23.5 19.939C23.348 20.0267 23.1755 20.073 23 20.073C22.8245 20.0729 22.652 20.0267 22.5 19.939L14.952 15.582V19.073C14.952 19.2485 14.9058 19.4209 14.818 19.573C14.7302 19.725 14.604 19.8512 14.452 19.939C14.3 20.0267 14.1275 20.073 13.952 20.073C13.7765 20.0729 13.604 20.0267 13.452 19.939L5.595 15.403C5.44299 15.3152 5.31677 15.189 5.22901 15.037C5.14124 14.8849 5.09504 14.7125 5.09504 14.537C5.09504 14.3614 5.14124 14.189 5.22901 14.037C5.31677 13.885 5.44299 13.7587 5.595 13.671L13.452 9.13397C13.6041 9.04616 13.7766 8.99996 13.9522 9C14.1279 9.00004 14.3004 9.04633 14.4524 9.13422C14.6045 9.2221 14.7307 9.34848 14.8184 9.50063C14.9061 9.65279 14.9522 9.82536 14.952 10.001V13.492V13.494ZM12.952 11.734L8.095 14.538L12.952 17.342V11.734Z" fill="black"/>
</svg>
