<svg width="116" height="31" viewBox="0 0 116 31" fill="none" xmlns="http://www.w3.org/2000/svg">
<rect width="109" height="31" rx="15.5" fill="white"/>
<g filter="url(#filter0_d_357_160)">
<path d="M12.5346 18.0039L12.5735 11.4586L15.2772 11.4808C15.7672 11.4848 16.1896 11.5842 16.5443 11.7789C16.9011 11.9714 17.1754 12.239 17.3673 12.5815C17.5592 12.9218 17.6538 13.3168 17.6511 13.7664C17.6484 14.218 17.547 14.6125 17.3468 14.9496C17.1488 15.2846 16.8671 15.5433 16.5017 15.7257C16.1362 15.9081 15.7032 15.9972 15.2025 15.9931L13.5342 15.9794L13.5416 14.733L14.9159 14.7443C15.1545 14.7462 15.3539 14.7063 15.5142 14.6245C15.6766 14.5428 15.7998 14.4277 15.8838 14.2792C15.9678 14.1286 16.0104 13.9532 16.0116 13.7529C16.0128 13.5505 15.9723 13.3754 15.8901 13.2277C15.8079 13.0779 15.686 12.9618 15.5246 12.8795C15.3631 12.7972 15.1642 12.7551 14.9277 12.7532L14.1479 12.7468L14.1166 18.0169L12.5346 18.0039ZM18.4055 18.0522L18.4443 11.5068L21.1481 11.529C21.6381 11.5331 22.0605 11.625 22.4153 11.8047C22.7722 11.9824 23.0466 12.2361 23.2386 12.5658C23.4305 12.8934 23.5252 13.2809 23.5225 13.7283C23.5198 14.1821 23.4185 14.567 23.2184 14.8828C23.0184 15.1965 22.7357 15.435 22.3704 15.5982C22.0051 15.7592 21.5732 15.8377 21.0746 15.8336L19.3648 15.8196L19.3722 14.5731L20.788 14.5848C21.0266 14.5867 21.226 14.5575 21.3862 14.497C21.5485 14.4344 21.6716 14.3395 21.7554 14.2124C21.8393 14.0831 21.8818 13.9172 21.883 13.7148C21.8842 13.5124 21.8436 13.3448 21.7613 13.212C21.679 13.0771 21.5571 12.976 21.3956 12.9086C21.2341 12.8391 21.0351 12.8034 20.7986 12.8014L20.0188 12.795L19.9875 18.0652L18.4055 18.0522ZM22.1081 15.091L23.7203 18.0958L21.9945 18.0817L20.4143 15.0771L22.1081 15.091ZM30.5614 14.8792C30.5571 15.5994 30.415 16.2087 30.1351 16.7071C29.8551 17.2055 29.4779 17.5828 29.0033 17.8388C28.5309 18.0949 28.0018 18.2205 27.4159 18.2157C26.8278 18.2109 26.2991 18.0755 25.8298 17.8095C25.3605 17.5436 24.9888 17.1602 24.7148 16.6594C24.4429 16.1564 24.3091 15.5459 24.3134 14.8279C24.3177 14.1077 24.4587 13.4984 24.7365 13C25.0165 12.5016 25.3927 12.1243 25.8651 11.8682C26.3375 11.6122 26.8677 11.4866 27.4558 11.4914C28.0417 11.4962 28.5693 11.6305 29.0386 11.8943C29.5101 12.1582 29.8828 12.5416 30.1568 13.0445C30.4308 13.5475 30.5657 14.1591 30.5614 14.8792ZM28.9443 14.8659C28.9468 14.4398 28.8882 14.0792 28.7685 13.7842C28.651 13.4892 28.4797 13.2651 28.2547 13.112C28.0319 12.9589 27.7629 12.881 27.4475 12.8784C27.1343 12.8759 26.8644 12.9493 26.6376 13.0987C26.4109 13.2481 26.2359 13.4694 26.1127 13.7624C25.9917 14.0554 25.9299 14.415 25.9273 14.8411C25.9248 15.2673 25.9823 15.6278 26.0999 15.9229C26.2196 16.2179 26.3919 16.442 26.6169 16.5951C26.8418 16.7482 27.1109 16.8261 27.4241 16.8287C27.7394 16.8312 28.0094 16.7578 28.234 16.6084C28.4607 16.459 28.6346 16.2377 28.7557 15.9447C28.8789 15.6517 28.9418 15.2921 28.9443 14.8659ZM34.1635 11.636L35.7231 11.6488L35.6962 16.1743C35.6916 16.5983 35.5882 16.9682 35.386 17.284C35.1838 17.5977 34.9054 17.8405 34.5507 18.0123C34.1981 18.1841 33.7906 18.2681 33.3283 18.2643C32.9192 18.2609 32.5479 18.1865 32.2142 18.041C31.8827 17.8955 31.6187 17.6717 31.4224 17.3697C31.2281 17.0677 31.1335 16.6823 31.1384 16.2136L32.714 16.2265C32.7194 16.3949 32.7505 16.539 32.8073 16.6588C32.8662 16.7764 32.9477 16.8655 33.0518 16.926C33.1558 16.9866 33.2803 17.0174 33.4252 17.0186C33.5765 17.0198 33.7045 16.9889 33.8093 16.9259C33.9141 16.8607 33.9935 16.7644 34.0475 16.637C34.1036 16.5096 34.1333 16.3511 34.1366 16.1615L34.1635 11.636ZM36.6774 18.2023L36.7162 11.657L41.28 11.6945L41.2723 12.9793L38.2905 12.9548L38.2826 14.2971L41.0311 14.3197L41.0234 15.6076L38.2749 15.585L38.267 16.9305L41.2487 16.9551L41.2411 18.2398L36.6774 18.2023ZM48.1978 14.1229L46.5999 14.1097C46.5795 13.9455 46.5367 13.7971 46.4715 13.6644C46.4062 13.5318 46.3195 13.4181 46.2114 13.3235C46.1033 13.2289 45.9748 13.1564 45.826 13.1062C45.6793 13.0538 45.5164 13.0269 45.3375 13.0255C45.02 13.0229 44.7458 13.0984 44.5147 13.252C44.2858 13.4057 44.1087 13.629 43.9834 13.922C43.8602 14.2151 43.7974 14.5704 43.7949 14.988C43.7923 15.4226 43.8519 15.7875 43.9738 16.0825C44.0977 16.3755 44.2722 16.5974 44.4972 16.7484C44.7243 16.8973 44.9934 16.973 45.3044 16.9756C45.4791 16.977 45.638 16.956 45.781 16.9124C45.9262 16.8688 46.0533 16.8049 46.1625 16.7206C46.2738 16.6341 46.365 16.5294 46.436 16.4064C46.5092 16.2813 46.5601 16.14 46.5888 15.9826L48.1867 16.0053C48.1572 16.2948 48.0714 16.5797 47.9291 16.8597C47.7889 17.1398 47.5967 17.395 47.3525 17.6253C47.1082 17.8534 46.811 18.0342 46.4607 18.1677C46.1126 18.3012 45.7138 18.3661 45.2642 18.3624C44.6719 18.3575 44.1422 18.2232 43.675 17.9594C43.2099 17.6935 42.8436 17.3091 42.576 16.8062C42.3084 16.3032 42.1767 15.6928 42.181 14.9747C42.1852 14.2546 42.3263 13.6453 42.6041 13.1468C42.8819 12.6484 43.256 12.2711 43.7262 12.015C44.1965 11.7589 44.7225 11.6333 45.3041 11.6381C45.7004 11.6413 46.0666 11.6997 46.4025 11.8133C46.7385 11.9247 47.0337 12.087 47.2882 12.3C47.5426 12.5109 47.7488 12.7694 47.9068 13.0753C48.0648 13.3813 48.1618 13.7305 48.1978 14.1229ZM48.8954 13.0419L48.903 11.7571L54.4351 11.8026L54.4275 13.0874L52.4428 13.0711L52.4116 18.3316L50.852 18.3188L50.8832 13.0583L48.8954 13.0419ZM57.1024 18.3702L57.1413 11.8249L58.7233 11.8379L58.7077 14.4649L61.2868 14.4861L61.3024 11.859L62.8811 11.872L62.8423 18.4174L61.2635 18.4044L61.2791 15.7741L58.7 15.7529L58.6844 18.3832L57.1024 18.3702ZM65.4554 11.8932L65.4166 18.4385L63.8346 18.4255L63.8735 11.8802L65.4554 11.8932ZM69.9748 13.8927C69.9549 13.6582 69.8612 13.4752 69.6936 13.3439C69.5282 13.2104 69.291 13.1424 68.9821 13.1399C68.7776 13.1382 68.607 13.1634 68.4703 13.2156C68.3336 13.2677 68.2309 13.3404 68.1622 13.4336C68.0934 13.5246 68.0577 13.6298 68.0548 13.7491C68.05 13.8471 68.0686 13.9335 68.1108 14.0085C68.1551 14.0834 68.2186 14.15 68.3014 14.2082C68.3863 14.2643 68.4883 14.3141 68.6073 14.3577C68.7264 14.4013 68.8604 14.4397 69.0094 14.4729L69.5711 14.6054C69.8945 14.6783 70.1795 14.7744 70.4259 14.8936C70.6745 15.0129 70.8825 15.1541 71.0498 15.3175C71.2193 15.4808 71.3471 15.6683 71.4332 15.8799C71.5193 16.0916 71.5627 16.3285 71.5632 16.5905C71.5586 17.0039 71.4521 17.3578 71.2437 17.6522C71.0353 17.9467 70.7367 18.1712 70.348 18.3256C69.9614 18.4801 69.4954 18.5551 68.95 18.5507C68.4024 18.5462 67.9257 18.4602 67.5197 18.2928C67.1137 18.1254 66.7988 17.8735 66.5749 17.5371C66.3511 17.2008 66.2375 16.7769 66.2341 16.2655L67.749 16.2779C67.7605 16.489 67.8159 16.6652 67.9152 16.8067C68.0145 16.9481 68.1513 17.0558 68.3256 17.1296C68.502 17.2035 68.7063 17.2414 68.9386 17.2433C69.1516 17.2451 69.3329 17.2178 69.4824 17.1615C69.634 17.1052 69.7506 17.0263 69.8322 16.9247C69.9137 16.8231 69.956 16.7062 69.9589 16.5742C69.9575 16.4506 69.9198 16.3448 69.8457 16.2568C69.7717 16.1667 69.6571 16.0891 69.5019 16.0239C69.3489 15.9566 69.1533 15.8942 68.915 15.8369L68.232 15.6714C67.666 15.5368 67.2209 15.3233 66.8966 15.0308C66.5724 14.7363 66.4128 14.3408 66.4179 13.8443C66.4181 13.4395 66.5289 13.0856 66.7502 12.7828C66.9714 12.4799 67.2765 12.2448 67.6652 12.0775C68.054 11.9103 68.4966 11.8287 68.9931 11.8328C69.5001 11.8369 69.9396 11.9268 70.3114 12.1025C70.6854 12.276 70.9748 12.5181 71.1796 12.8287C71.3845 13.1394 71.4878 13.4982 71.4897 13.9052L69.9748 13.8927ZM72.168 13.2332L72.1757 11.9484L77.7078 11.9939L77.7002 13.2787L75.7155 13.2623L75.6843 18.5229L74.1247 18.5101L74.1559 13.2495L72.168 13.2332ZM84.3399 15.3212C84.3356 16.0414 84.1935 16.6507 83.9135 17.1491C83.6336 17.6475 83.2563 18.0247 82.7818 18.2808C82.3094 18.5369 81.7802 18.6625 81.1943 18.6577C80.6063 18.6528 80.0776 18.5175 79.6083 18.2515C79.139 17.9856 78.7673 17.6022 78.4933 17.1013C78.2214 16.5984 78.0876 15.9879 78.0918 15.2699C78.0961 14.5497 78.2372 13.9404 78.515 13.442C78.7949 12.9435 79.1711 12.5663 79.6435 12.3102C80.1159 12.0542 80.6462 11.9285 81.2342 11.9334C81.8201 11.9382 82.3477 12.0725 82.8171 12.3363C83.2885 12.6001 83.6612 12.9835 83.9353 13.4865C84.2093 13.9895 84.3441 14.6011 84.3399 15.3212ZM82.7227 15.3079C82.7253 14.8818 82.6667 14.5212 82.547 14.2262C82.4294 13.9312 82.2581 13.7071 82.0332 13.554C81.8104 13.4009 81.5413 13.323 81.226 13.3204C80.9128 13.3178 80.6428 13.3913 80.4161 13.5407C80.1893 13.6901 80.0144 13.9113 79.8912 14.2044C79.7701 14.4974 79.7083 14.857 79.7058 15.2831C79.7033 15.7093 79.7608 16.0698 79.8783 16.3648C79.998 16.6599 80.1704 16.8839 80.3953 17.0371C80.6203 17.1902 80.8893 17.2681 81.2025 17.2706C81.5179 17.2732 81.7878 17.1998 82.0124 17.0504C82.2392 16.9009 82.4131 16.6797 82.5342 16.3867C82.6573 16.0936 82.7202 15.734 82.7227 15.3079ZM85.2441 18.6015L85.2829 12.0561L87.9866 12.0784C88.4767 12.0824 88.8991 12.1743 89.2538 12.354C89.6108 12.5317 89.8852 12.7854 90.0771 13.1151C90.2691 13.4427 90.3637 13.8302 90.3611 14.2776C90.3584 14.7314 90.257 15.1163 90.057 15.4321C89.857 15.7458 89.5743 15.9843 89.209 16.1475C88.8437 16.3085 88.4117 16.387 87.9132 16.3829L86.2033 16.3689L86.2107 15.1224L87.6265 15.1341C87.8652 15.136 88.0646 15.1068 88.2247 15.0463C88.387 14.9837 88.5101 14.8888 88.594 14.7617C88.6778 14.6324 88.7204 14.4666 88.7216 14.2641C88.7228 14.0617 88.6822 13.8941 88.5999 13.7614C88.5176 13.6264 88.3957 13.5253 88.2341 13.4579C88.0726 13.3884 87.8736 13.3527 87.6371 13.3507L86.8573 13.3443L86.826 18.6145L85.2441 18.6015ZM88.9467 15.6403L90.5589 18.6451L88.8331 18.631L87.2529 15.6264L88.9467 15.6403ZM90.6257 12.1L92.393 12.1146L93.7606 14.8649L93.8181 14.8654L95.2182 12.1378L96.9855 12.1523L94.5659 16.4919L94.553 18.678L92.9806 18.6651L92.9935 16.479L90.6257 12.1Z" fill="black"/>
</g>
<defs>
<filter id="filter0_d_357_160" x="8.53406" y="11.3691" width="92.452" height="15.418" filterUnits="userSpaceOnUse" color-interpolation-filters="sRGB">
<feFlood flood-opacity="0" result="BackgroundImageFix"/>
<feColorMatrix in="SourceAlpha" type="matrix" values="0 0 0 0 0 0 0 0 0 0 0 0 0 0 0 0 0 0 127 0" result="hardAlpha"/>
<feOffset dy="4"/>
<feGaussianBlur stdDeviation="2"/>
<feComposite in2="hardAlpha" operator="out"/>
<feColorMatrix type="matrix" values="0 0 0 0 0 0 0 0 0 0 0 0 0 0 0 0 0 0 0.25 0"/>
<feBlend mode="normal" in2="BackgroundImageFix" result="effect1_dropShadow_357_160"/>
<feBlend mode="normal" in="SourceGraphic" in2="effect1_dropShadow_357_160" result="shape"/>
</filter>
</defs>
</svg>
