<svg width="117" height="31" viewBox="0 0 117 31" fill="none" xmlns="http://www.w3.org/2000/svg">
<rect width="109" height="31" rx="15.5" fill="white"/>
<g filter="url(#filter0_d_358_161)">
<path d="M14.5095 18.1007L14.5483 11.5554L17.2521 11.5776C17.7421 11.5816 18.1644 11.681 18.5191 11.8757C18.8759 12.0682 19.1503 12.3358 19.3421 12.6783C19.534 13.0186 19.6286 13.4136 19.626 13.8632C19.6233 14.3149 19.5219 14.7093 19.3217 15.0464C19.1237 15.3814 18.842 15.6401 18.4765 15.8225C18.1111 16.0049 17.678 16.094 17.1773 16.0899L15.5091 16.0762L15.5165 14.8298L16.8907 14.8411C17.1293 14.843 17.3288 14.8031 17.4891 14.7213C17.6515 14.6396 17.7747 14.5245 17.8587 14.376C17.9427 14.2254 17.9853 14.05 17.9864 13.8497C17.9877 13.6473 17.9471 13.4722 17.8649 13.3245C17.7827 13.1747 17.6609 13.0586 17.4994 12.9763C17.338 12.894 17.139 12.8519 16.9025 12.85L16.1227 12.8436L16.0914 18.1137L14.5095 18.1007ZM20.3804 18.149L20.4192 11.6036L23.1229 11.6258C23.613 11.6299 24.0354 11.7218 24.3901 11.9015C24.7471 12.0792 25.0215 12.3329 25.2134 12.6626C25.4054 12.9902 25.5 13.3777 25.4974 13.8251C25.4947 14.2789 25.3933 14.6638 25.1933 14.9796C24.9933 15.2933 24.7106 15.5318 24.3453 15.695C23.98 15.856 23.548 15.9345 23.0495 15.9304L21.3396 15.9164L21.347 14.6699L22.7628 14.6816C23.0015 14.6835 23.2009 14.6543 23.361 14.5938C23.5233 14.5312 23.6464 14.4363 23.7303 14.3092C23.8141 14.1799 23.8567 14.0141 23.8579 13.8116C23.8591 13.6092 23.8185 13.4416 23.7362 13.3088C23.6539 13.1739 23.532 13.0728 23.3704 13.0054C23.2089 12.9359 23.0099 12.9002 22.7734 12.8982L21.9936 12.8918L21.9623 18.162L20.3804 18.149ZM24.083 15.1878L25.6952 18.1926L23.9694 18.1785L22.3892 15.1739L24.083 15.1878ZM32.5363 14.976C32.532 15.6962 32.3899 16.3055 32.1099 16.8039C31.83 17.3023 31.4527 17.6796 30.9782 17.9356C30.5058 18.1917 29.9766 18.3173 29.3907 18.3125C28.8027 18.3077 28.274 18.1723 27.8047 17.9063C27.3354 17.6404 26.9637 17.257 26.6897 16.7562C26.4178 16.2532 26.284 15.6427 26.2883 14.9247C26.2925 14.2045 26.4336 13.5952 26.7114 13.0968C26.9913 12.5984 27.3675 12.2211 27.8399 11.965C28.3123 11.709 28.8426 11.5834 29.4306 11.5882C30.0165 11.593 30.5442 11.7273 31.0135 11.9911C31.4849 12.255 31.8577 12.6384 32.1317 13.1413C32.4057 13.6443 32.5405 14.2559 32.5363 14.976ZM30.9191 14.9627C30.9217 14.5366 30.8631 14.176 30.7434 13.881C30.6258 13.586 30.4545 13.3619 30.2296 13.2088C30.0068 13.0557 29.7377 12.9778 29.4224 12.9752C29.1092 12.9727 28.8392 13.0461 28.6125 13.1955C28.3857 13.3449 28.2108 13.5662 28.0876 13.8592C27.9665 14.1522 27.9047 14.5118 27.9022 14.938C27.8997 15.3641 27.9572 15.7246 28.0748 16.0197C28.1945 16.3147 28.3668 16.5388 28.5917 16.6919C28.8167 16.845 29.0857 16.9229 29.3989 16.9255C29.7143 16.928 29.9842 16.8546 30.2089 16.7052C30.4356 16.5558 30.6095 16.3345 30.7306 16.0415C30.8537 15.7485 30.9166 15.3889 30.9191 14.9627ZM36.1383 11.7328L37.6979 11.7456L37.6711 16.2711C37.6664 16.6951 37.563 17.065 37.3608 17.3808C37.1587 17.6945 36.8803 17.9373 36.5255 18.1091C36.173 18.2809 35.7655 18.3649 35.3032 18.3611C34.8941 18.3577 34.5227 18.2833 34.1891 18.1378C33.8575 17.9923 33.5936 17.7685 33.3972 17.4665C33.203 17.1645 33.1083 16.7791 33.1132 16.3104L34.6888 16.3233C34.6942 16.4917 34.7253 16.6358 34.7821 16.7556C34.8411 16.8732 34.9226 16.9623 35.0266 17.0228C35.1307 17.0834 35.2552 17.1142 35.4 17.1154C35.5513 17.1166 35.6793 17.0857 35.7841 17.0227C35.8889 16.9575 35.9683 16.8612 36.0223 16.7338C36.0785 16.6064 36.1082 16.4479 36.1115 16.2583L36.1383 11.7328ZM38.6522 18.2991L38.691 11.7538L43.2548 11.7913L43.2472 13.0761L40.2654 13.0516L40.2574 14.3939L43.0059 14.4165L42.9983 15.7044L40.2498 15.6818L40.2418 17.0274L43.2236 17.0519L43.216 18.3366L38.6522 18.2991ZM50.1727 14.2197L48.5747 14.2065C48.5544 14.0423 48.5116 13.8939 48.4463 13.7612C48.3811 13.6286 48.2944 13.5149 48.1863 13.4203C48.0782 13.3257 47.9497 13.2532 47.8008 13.203C47.6541 13.1506 47.4913 13.1237 47.3123 13.1223C46.9948 13.1197 46.7206 13.1952 46.4896 13.3488C46.2607 13.5025 46.0836 13.7258 45.9582 14.0188C45.8351 14.3119 45.7722 14.6672 45.7697 15.0848C45.7672 15.5194 45.8268 15.8843 45.9486 16.1793C46.0726 16.4723 46.2471 16.6942 46.472 16.8452C46.6991 16.9941 46.9682 17.0698 47.2793 17.0724C47.454 17.0738 47.6129 17.0528 47.7559 17.0092C47.901 16.9656 48.0282 16.9017 48.1373 16.8174C48.2487 16.7309 48.3398 16.6262 48.4109 16.5032C48.4841 16.3781 48.535 16.2368 48.5636 16.0794L50.1615 16.1021C50.1321 16.3916 50.0462 16.6765 49.9039 16.9565C49.7638 17.2366 49.5716 17.4918 49.3273 17.7221C49.0831 17.9502 48.7858 18.131 48.4356 18.2645C48.0875 18.398 47.6887 18.4629 47.2391 18.4592C46.6468 18.4543 46.117 18.32 45.6498 18.0562C45.1848 17.7903 44.8185 17.4059 44.5508 16.903C44.2832 16.4 44.1516 15.7896 44.1558 15.0715C44.1601 14.3514 44.3011 13.7421 44.579 13.2436C44.8568 12.7452 45.2308 12.3679 45.7011 12.1118C46.1714 11.8558 46.6973 11.7301 47.279 11.7349C47.6753 11.7381 48.0414 11.7965 48.3774 11.9101C48.7134 12.0215 49.0086 12.1838 49.263 12.3968C49.5175 12.6077 49.7237 12.8662 49.8817 13.1722C50.0396 13.4781 50.1366 13.8273 50.1727 14.2197ZM50.8702 13.1387L50.8779 11.8539L56.41 11.8994L56.4024 13.1842L54.4177 13.1679L54.3865 18.4284L52.8269 18.4156L52.8581 13.1551L50.8702 13.1387ZM59.0773 18.467L59.1161 11.9217L60.6981 11.9347L60.6825 14.5617L63.2616 14.5829L63.2772 11.9558L64.856 11.9688L64.8172 18.5142L63.2384 18.5012L63.254 15.8709L60.6749 15.8497L60.6593 18.48L59.0773 18.467ZM67.4303 11.99L67.3915 18.5353L65.8095 18.5223L65.8483 11.977L67.4303 11.99ZM71.9497 13.9895C71.9297 13.755 71.836 13.572 71.6685 13.4407C71.5031 13.3072 71.2659 13.2392 70.957 13.2367C70.7524 13.235 70.5818 13.2602 70.4451 13.3124C70.3085 13.3645 70.2058 13.4372 70.137 13.5304C70.0683 13.6214 70.0325 13.7266 70.0297 13.8459C70.0248 13.9439 70.0435 14.0303 70.0857 14.1053C70.13 14.1802 70.1935 14.2468 70.2762 14.305C70.3611 14.3611 70.4631 14.4109 70.5822 14.4545C70.7012 14.4981 70.8353 14.5365 70.9842 14.5697L71.5459 14.7022C71.8694 14.7751 72.1543 14.8712 72.4008 14.9904C72.6493 15.1097 72.8573 15.2509 73.0247 15.4143C73.1942 15.5776 73.322 15.7651 73.4081 15.9767C73.4942 16.1884 73.5375 16.4253 73.5381 16.6873C73.5335 17.1007 73.427 17.4546 73.2186 17.749C73.0101 18.0435 72.7116 18.268 72.3229 18.4224C71.9363 18.5769 71.4703 18.6519 70.9249 18.6475C70.3773 18.643 69.9005 18.557 69.4945 18.3896C69.0886 18.2222 68.7737 17.9703 68.5498 17.6339C68.3259 17.2976 68.2123 16.8737 68.209 16.3623L69.7238 16.3747C69.7354 16.5858 69.7908 16.762 69.8901 16.9035C69.9894 17.0449 70.1262 17.1526 70.3005 17.2264C70.4769 17.3003 70.6812 17.3382 70.9134 17.3402C71.1265 17.3419 71.3078 17.3146 71.4572 17.2583C71.6089 17.202 71.7255 17.1231 71.807 17.0215C71.8886 16.9199 71.9308 16.803 71.9338 16.671C71.9324 16.5474 71.8946 16.4416 71.8206 16.3536C71.7465 16.2635 71.6319 16.1859 71.4768 16.1207C71.3238 16.0534 71.1281 15.991 70.8898 15.9337L70.2068 15.7682C69.6409 15.6336 69.1958 15.4201 68.8715 15.1276C68.5472 14.8331 68.3876 14.4376 68.3927 13.9411C68.393 13.5363 68.5038 13.1824 68.725 12.8796C68.9463 12.5767 69.2513 12.3416 69.6401 12.1743C70.0289 12.0071 70.4715 11.9255 70.9679 11.9296C71.475 11.9337 71.9145 12.0236 72.2863 12.1993C72.6603 12.3728 72.9497 12.6149 73.1545 12.9255C73.3593 13.2362 73.4627 13.595 73.4645 14.002L71.9497 13.9895ZM74.1429 13.33L74.1505 12.0452L79.6826 12.0907L79.675 13.3755L77.6903 13.3591L77.6591 18.6197L76.0995 18.6069L76.1307 13.3463L74.1429 13.33ZM86.3147 15.418C86.3104 16.1382 86.1683 16.7475 85.8884 17.2459C85.6084 17.7443 85.2312 18.1215 84.7566 18.3776C84.2842 18.6337 83.7551 18.7593 83.1692 18.7545C82.5811 18.7496 82.0524 18.6143 81.5831 18.3483C81.1138 18.0824 80.7421 17.699 80.4681 17.1981C80.1962 16.6952 80.0624 16.0847 80.0667 15.3667C80.071 14.6465 80.212 14.0372 80.4898 13.5388C80.7698 13.0403 81.146 12.6631 81.6184 12.407C82.0908 12.151 82.621 12.0253 83.2091 12.0302C83.795 12.035 84.3226 12.1693 84.7919 12.4331C85.2634 12.6969 85.6361 13.0803 85.9101 13.5833C86.1841 14.0863 86.319 14.6979 86.3147 15.418ZM84.6976 15.4047C84.7001 14.9786 84.6415 14.618 84.5218 14.323C84.4043 14.028 84.233 13.8039 84.008 13.6508C83.7852 13.4977 83.5162 13.4198 83.2008 13.4172C82.8876 13.4146 82.6177 13.4881 82.3909 13.6375C82.1642 13.7869 81.9892 14.0081 81.866 14.3012C81.745 14.5942 81.6832 14.9538 81.6806 15.3799C81.6781 15.8061 81.7356 16.1666 81.8532 16.4616C81.9729 16.7567 82.1452 16.9807 82.3702 17.1339C82.5951 17.287 82.8642 17.3649 83.1774 17.3674C83.4927 17.37 83.7627 17.2966 83.9873 17.1472C84.214 16.9977 84.3879 16.7765 84.509 16.4835C84.6322 16.1904 84.6951 15.8308 84.6976 15.4047ZM87.2189 18.6983L87.2578 12.1529L89.9615 12.1752C90.4515 12.1792 90.8739 12.2711 91.2287 12.4508C91.5856 12.6285 91.86 12.8822 92.052 13.2119C92.2439 13.5395 92.3386 13.927 92.3359 14.3744C92.3332 14.8282 92.2319 15.2131 92.0318 15.5289C91.8318 15.8426 91.5491 16.0811 91.1838 16.2443C90.8185 16.4053 90.3866 16.4838 89.888 16.4797L88.1782 16.4657L88.1856 15.2192L89.6014 15.2309C89.84 15.2328 90.0394 15.2036 90.1996 15.1431C90.3619 15.0805 90.485 14.9856 90.5688 14.8585C90.6527 14.7292 90.6952 14.5634 90.6964 14.3609C90.6976 14.1585 90.6571 13.9909 90.5747 13.8582C90.4924 13.7232 90.3705 13.6221 90.209 13.5547C90.0475 13.4852 89.8485 13.4495 89.612 13.4475L88.8322 13.4411L88.8009 18.7113L87.2189 18.6983ZM90.9216 15.7371L92.5337 18.742L90.8079 18.7278L89.2277 15.7232L90.9216 15.7371ZM92.6005 12.1968L94.3679 12.2114L95.7354 14.9617L95.793 14.9622L97.193 12.2346L98.9604 12.2491L96.5408 16.5887L96.5278 18.7748L94.9554 18.7619L94.9684 16.5758L92.6005 12.1968Z" fill="black"/>
</g>
<defs>
<filter id="filter0_d_358_161" x="10.5089" y="11.4659" width="92.452" height="15.418" filterUnits="userSpaceOnUse" color-interpolation-filters="sRGB">
<feFlood flood-opacity="0" result="BackgroundImageFix"/>
<feColorMatrix in="SourceAlpha" type="matrix" values="0 0 0 0 0 0 0 0 0 0 0 0 0 0 0 0 0 0 127 0" result="hardAlpha"/>
<feOffset dy="4"/>
<feGaussianBlur stdDeviation="2"/>
<feComposite in2="hardAlpha" operator="out"/>
<feColorMatrix type="matrix" values="0 0 0 0 0 0 0 0 0 0 0 0 0 0 0 0 0 0 0.25 0"/>
<feBlend mode="normal" in2="BackgroundImageFix" result="effect1_dropShadow_358_161"/>
<feBlend mode="normal" in="SourceGraphic" in2="effect1_dropShadow_358_161" result="shape"/>
</filter>
</defs>
</svg>
