<svg width="109" height="31" viewBox="0 0 109 31" fill="none" xmlns="http://www.w3.org/2000/svg">
<rect width="109" height="31" rx="15.5" fill="white"/>
<g filter="url(#filter0_d_336_3)">
<path d="M44.0745 13.5468C44.0546 13.3122 43.9609 13.1293 43.7933 12.9979C43.6279 12.8645 43.3908 12.7965 43.0818 12.7939C42.8773 12.7922 42.7067 12.8175 42.57 12.8696C42.4333 12.9218 42.3306 12.9944 42.2619 13.0876C42.1932 13.1787 42.1574 13.2839 42.1546 13.4031C42.1497 13.5011 42.1684 13.5876 42.2105 13.6625C42.2548 13.7374 42.3184 13.804 42.4011 13.8622C42.486 13.9183 42.588 13.9682 42.7071 14.0118C42.8261 14.0554 42.9601 14.0937 43.1091 14.1269L43.6708 14.2594C43.9942 14.3324 44.2792 14.4285 44.5256 14.5477C44.7742 14.6669 44.9822 14.8082 45.1496 14.9715C45.319 15.1348 45.4468 15.3223 45.5329 15.534C45.619 15.7456 45.6624 15.9825 45.663 16.2446C45.6584 16.6579 45.5519 17.0118 45.3434 17.3063C45.135 17.6007 44.8365 17.8252 44.4477 17.9797C44.0612 18.1342 43.5952 18.2092 43.0497 18.2047C42.5022 18.2002 42.0254 18.1142 41.6194 17.9468C41.2134 17.7794 40.8985 17.5275 40.6747 17.1912C40.4508 16.8548 40.3372 16.4309 40.3338 15.9195L41.8487 15.932C41.8602 16.143 41.9157 16.3192 42.015 16.4607C42.1143 16.6021 42.2511 16.7098 42.4253 16.7837C42.6017 16.8576 42.8061 16.8955 43.0383 16.8974C43.2514 16.8991 43.4326 16.8719 43.5821 16.8156C43.7337 16.7593 43.8503 16.6803 43.9319 16.5787C44.0135 16.4771 44.0557 16.3603 44.0586 16.2282C44.0572 16.1046 44.0195 15.9988 43.9455 15.9108C43.8714 15.8207 43.7568 15.7431 43.6017 15.6779C43.4486 15.6106 43.253 15.5483 43.0147 15.4909L42.3317 15.3255C41.7657 15.1908 41.3206 14.9773 40.9964 14.6849C40.6721 14.3903 40.5125 13.9948 40.5176 13.4984C40.5179 13.0935 40.6286 12.7397 40.8499 12.4368C41.0712 12.1339 41.3762 11.8988 41.765 11.7316C42.1537 11.5643 42.5964 11.4827 43.0928 11.4868C43.5999 11.491 44.0393 11.5809 44.4112 11.7565C44.7851 11.93 45.0745 12.1721 45.2794 12.4828C45.4842 12.7934 45.5876 13.1522 45.5894 13.5592L44.0745 13.5468ZM46.4507 18.1495L46.4895 11.6042L48.0715 11.6172L48.0551 14.3849L48.1414 14.3856L50.3214 11.6357L52.1846 11.651L49.8471 14.5531L52.1873 18.1967L50.2954 18.1811L48.6807 15.595L48.0432 16.3888L48.0327 18.1625L46.4507 18.1495ZM54.3906 11.6691L54.3518 18.2145L52.7698 18.2015L52.8086 11.6561L54.3906 11.6691ZM55.3449 18.2226L55.3837 11.6773L56.9657 11.6903L56.9345 16.9509L59.6574 16.9732L59.6498 18.258L55.3449 18.2226ZM60.4688 18.2647L60.5076 11.7194L62.0896 11.7324L62.0584 16.993L64.7813 17.0153L64.7736 18.3001L60.4688 18.2647ZM69.1577 13.7529C69.1378 13.5184 69.044 13.3354 68.8765 13.2041C68.7111 13.0706 68.4739 13.0026 68.165 13.0001C67.9604 12.9984 67.7898 13.0236 67.6531 13.0758C67.5165 13.1279 67.4138 13.2006 67.345 13.2938C67.2763 13.3848 67.2405 13.49 67.2377 13.6093C67.2328 13.7073 67.2515 13.7937 67.2937 13.8686C67.338 13.9436 67.4015 14.0102 67.4843 14.0684C67.5692 14.1245 67.6711 14.1743 67.7902 14.2179C67.9093 14.2615 68.0433 14.2999 68.1922 14.3331L68.7539 14.4655C69.0774 14.5385 69.3623 14.6346 69.6088 14.7538C69.8574 14.873 70.0653 15.0143 70.2327 15.1776C70.4022 15.341 70.53 15.5285 70.6161 15.7401C70.7022 15.9518 70.7455 16.1886 70.7461 16.4507C70.7415 16.864 70.635 17.2179 70.4266 17.5124C70.2182 17.8069 69.9196 18.0313 69.5309 18.1858C69.1443 18.3403 68.6783 18.4153 68.1329 18.4108C67.5853 18.4063 67.1085 18.3204 66.7026 18.153C66.2966 17.9856 65.9817 17.7337 65.7578 17.3973C65.5339 17.061 65.4203 16.6371 65.417 16.1257L66.9318 16.1381C66.9434 16.3491 66.9988 16.5254 67.0981 16.6668C67.1974 16.8083 67.3342 16.9159 67.5085 16.9898C67.6849 17.0637 67.8892 17.1016 68.1214 17.1035C68.3345 17.1053 68.5158 17.078 68.6653 17.0217C68.8169 16.9654 68.9335 16.8865 69.015 16.7849C69.0966 16.6833 69.1388 16.5664 69.1418 16.4343C69.1404 16.3107 69.1026 16.205 69.0286 16.117C68.9545 16.0269 68.8399 15.9492 68.6848 15.884C68.5318 15.8167 68.3361 15.7544 68.0978 15.697L67.4148 15.5316C66.8489 15.397 66.4038 15.1835 66.0795 14.891C65.7552 14.5964 65.5957 14.2009 65.6007 13.7045C65.601 13.2997 65.7118 12.9458 65.933 12.6429C66.1543 12.3401 66.4593 12.105 66.8481 11.9377C67.2369 11.7705 67.6795 11.6889 68.1759 11.6929C68.683 11.6971 69.1225 11.787 69.4943 11.9627C69.8683 12.1362 70.1577 12.3783 70.3625 12.6889C70.5673 12.9996 70.6707 13.3584 70.6725 13.7654L69.1577 13.7529Z" fill="black"/>
</g>
<defs>
<filter id="filter0_d_336_3" x="36.3204" y="11.4644" width="38.4537" height="14.9678" filterUnits="userSpaceOnUse" color-interpolation-filters="sRGB">
<feFlood flood-opacity="0" result="BackgroundImageFix"/>
<feColorMatrix in="SourceAlpha" type="matrix" values="0 0 0 0 0 0 0 0 0 0 0 0 0 0 0 0 0 0 127 0" result="hardAlpha"/>
<feOffset dy="4"/>
<feGaussianBlur stdDeviation="2"/>
<feComposite in2="hardAlpha" operator="out"/>
<feColorMatrix type="matrix" values="0 0 0 0 0 0 0 0 0 0 0 0 0 0 0 0 0 0 0.25 0"/>
<feBlend mode="normal" in2="BackgroundImageFix" result="effect1_dropShadow_336_3"/>
<feBlend mode="normal" in="SourceGraphic" in2="effect1_dropShadow_336_3" result="shape"/>
</filter>
</defs>
</svg>
