<svg width="20" height="20" viewBox="0 0 20 20" fill="none" xmlns="http://www.w3.org/2000/svg">
<path d="M9.87599 14.017C12.163 14.017 14.017 12.163 14.017 9.87599C14.017 7.58897 12.163 5.73499 9.87599 5.73499C7.58897 5.73499 5.73499 7.58897 5.73499 9.87599C5.73499 12.163 7.58897 14.017 9.87599 14.017Z" fill="white" stroke="black" stroke-width="1.911"/>
<path fill-rule="evenodd" clip-rule="evenodd" d="M10.832 0.956C10.832 0.702453 10.7313 0.459291 10.552 0.280006C10.3727 0.100721 10.1295 0 9.876 0C9.62245 0 9.37929 0.100721 9.20001 0.280006C9.02072 0.459291 8.92 0.702453 8.92 0.956V3.516C9.55383 3.42149 10.1982 3.42149 10.832 3.516V0.956ZM10.832 16.236C10.1982 16.3306 9.55382 16.3306 8.92 16.236V18.796C8.92 19.0495 9.02072 19.2927 9.20001 19.472C9.37929 19.6513 9.62245 19.752 9.876 19.752C10.1295 19.752 10.3727 19.6513 10.552 19.472C10.7313 19.2927 10.832 19.0495 10.832 18.796V16.236ZM18.796 10.832C19.0495 10.832 19.2927 10.7313 19.472 10.552C19.6513 10.3727 19.752 10.1295 19.752 9.876C19.752 9.62245 19.6513 9.37929 19.472 9.20001C19.2927 9.02072 19.0495 8.92 18.796 8.92H16.236C16.3306 9.55382 16.3306 10.1982 16.236 10.832H18.796ZM3.516 10.832C3.4215 10.1982 3.4215 9.55383 3.516 8.92H0.956C0.702453 8.92 0.459291 9.02072 0.280006 9.20001C0.100721 9.37929 0 9.62245 0 9.876C0 10.1295 0.100721 10.3727 0.280006 10.552C0.459291 10.7313 0.702453 10.832 0.956 10.832H3.516ZM16.859 4.245C17.0383 4.06571 17.139 3.82255 17.139 3.569C17.139 3.31545 17.0383 3.07229 16.859 2.893C16.6797 2.71371 16.4365 2.61299 16.183 2.61299C15.9294 2.61299 15.6863 2.71371 15.507 2.893L13.697 4.703C14.2116 5.08445 14.6669 5.54007 15.048 6.055L16.859 4.245ZM6.055 15.048C5.54046 14.6672 5.08518 14.2123 4.704 13.698L2.894 15.508C2.73069 15.6901 2.64337 15.9278 2.65 16.1723C2.65663 16.4168 2.75671 16.6494 2.92965 16.8223C3.10259 16.9953 3.33524 17.0954 3.57972 17.102C3.82421 17.1086 4.06194 17.0213 4.244 16.858L6.055 15.048ZM4.245 2.893C4.06558 2.71371 3.82229 2.61304 3.56865 2.61314C3.315 2.61323 3.07179 2.71408 2.8925 2.8935C2.71321 3.07292 2.61254 3.31621 2.61264 3.56985C2.61273 3.8235 2.71358 4.06671 2.893 4.246L4.703 6.056C5.08468 5.54093 5.54064 5.0853 6.056 4.704L4.246 2.894L4.245 2.893ZM15.049 13.697C14.6676 14.2117 14.2119 14.6669 13.697 15.048L15.507 16.858C15.6882 17.0261 15.9276 17.1175 16.1747 17.113C16.4219 17.1084 16.6577 17.0083 16.8327 16.8336C17.0076 16.659 17.1081 16.4233 17.113 16.1761C17.1179 15.929 17.0269 15.6895 16.859 15.508L15.049 13.697Z" fill="white"/>
</svg>
